<svg xmlns="http://www.w3.org/2000/svg" xmlns:xlink="http://www.w3.org/1999/xlink" width="500" zoomAndPan="magnify" viewBox="0 0 375 374.999991" height="500" preserveAspectRatio="xMidYMid meet" version="1.0"><defs><g/><clipPath id="04b5519323"><path d="M 36.152344 142.566406 L 101.402344 142.566406 L 101.402344 225.816406 L 36.152344 225.816406 Z M 36.152344 142.566406 " clip-rule="nonzero"/></clipPath></defs><g clip-path="url(#04b5519323)"><path fill="#b84c65" d="M 95.105469 162.636719 L 82.953125 162.636719 L 82.953125 166.773438 C 83.726562 167.292969 83.984375 168.066406 83.984375 169.101562 C 83.984375 170.652344 82.691406 171.945312 81.140625 171.945312 C 79.589844 171.945312 78.296875 170.652344 78.296875 169.101562 C 78.296875 168.066406 78.816406 167.292969 79.332031 166.773438 L 79.332031 162.636719 L 57.355469 162.636719 L 57.355469 166.773438 C 58.128906 167.292969 58.386719 168.066406 58.386719 169.101562 C 58.386719 170.652344 57.09375 171.945312 55.542969 171.945312 C 53.992188 171.945312 52.699219 170.652344 52.699219 169.101562 C 52.699219 168.066406 53.21875 167.292969 53.734375 166.773438 L 53.734375 162.636719 L 42.359375 162.636719 L 36.152344 225.46875 L 101.050781 225.46875 Z M 68.730469 207.109375 C 55.285156 200.902344 50.632812 190.304688 55.285156 184.355469 C 59.941406 178.410156 68.730469 182.03125 68.730469 187.976562 C 68.730469 182.03125 77.78125 178.410156 82.175781 184.355469 C 86.828125 190.304688 82.175781 200.902344 68.730469 207.109375 Z M 55.542969 169.617188 C 55.285156 169.359375 55.285156 169.359375 55.285156 169.101562 L 55.285156 155.65625 C 55.285156 152.296875 56.835938 148.933594 59.164062 146.605469 C 61.492188 144.019531 64.851562 142.726562 68.214844 142.726562 L 69.246094 142.726562 C 72.609375 142.726562 75.96875 144.019531 78.296875 146.605469 C 80.882812 148.933594 82.175781 152.296875 82.175781 155.65625 L 82.175781 169.101562 C 82.175781 169.359375 81.917969 169.617188 81.917969 169.617188 C 81.660156 169.878906 81.660156 169.878906 81.398438 169.878906 C 81.140625 169.878906 80.882812 169.617188 80.882812 169.617188 C 80.625 169.359375 80.625 169.359375 80.625 169.101562 L 80.625 155.65625 C 80.625 152.554688 79.332031 149.710938 77.261719 147.640625 C 75.195312 145.574219 72.351562 144.28125 69.246094 144.28125 L 68.214844 144.28125 C 65.109375 144.28125 62.265625 145.574219 60.199219 147.640625 C 58.128906 149.710938 56.835938 152.554688 56.835938 155.65625 L 56.835938 169.101562 C 56.835938 169.359375 56.578125 169.617188 56.578125 169.617188 C 56.320312 169.878906 56.320312 169.878906 56.0625 169.878906 C 55.800781 169.878906 55.542969 169.617188 55.542969 169.617188 Z M 55.542969 169.617188 " fill-opacity="1" fill-rule="nonzero"/></g><g fill="#000000" fill-opacity="1"><g transform="translate(136.844734, 215.768285)"><g><path d="M 18.40625 0.453125 C 15.226562 0.453125 12.375 -0.207031 9.84375 -1.53125 C 7.320312 -2.863281 5.347656 -4.707031 3.921875 -7.0625 C 2.503906 -9.425781 1.796875 -12.101562 1.796875 -15.09375 C 1.796875 -18.082031 2.503906 -20.753906 3.921875 -23.109375 C 5.347656 -25.472656 7.320312 -27.316406 9.84375 -28.640625 C 12.375 -29.972656 15.226562 -30.640625 18.40625 -30.640625 C 21.582031 -30.640625 24.421875 -29.972656 26.921875 -28.640625 C 29.429688 -27.316406 31.394531 -25.472656 32.8125 -23.109375 C 34.238281 -20.753906 34.953125 -18.082031 34.953125 -15.09375 C 34.953125 -12.101562 34.238281 -9.425781 32.8125 -7.0625 C 31.394531 -4.707031 29.429688 -2.863281 26.921875 -1.53125 C 24.421875 -0.207031 21.582031 0.453125 18.40625 0.453125 Z M 18.40625 -6.734375 C 20.644531 -6.734375 22.484375 -7.488281 23.921875 -9 C 25.367188 -10.519531 26.09375 -12.550781 26.09375 -15.09375 C 26.09375 -17.632812 25.367188 -19.660156 23.921875 -21.171875 C 22.484375 -22.691406 20.644531 -23.453125 18.40625 -23.453125 C 16.15625 -23.453125 14.300781 -22.691406 12.84375 -21.171875 C 11.382812 -19.660156 10.65625 -17.632812 10.65625 -15.09375 C 10.65625 -12.550781 11.382812 -10.519531 12.84375 -9 C 14.300781 -7.488281 16.15625 -6.734375 18.40625 -6.734375 Z M 18.40625 -6.734375 "/></g></g></g><g fill="#000000" fill-opacity="1"><g transform="translate(169.375978, 215.768285)"><g><path d="M 17 -11.84375 L 12.796875 -7.6875 L 12.796875 0 L 4.046875 0 L 4.046875 -41.640625 L 12.796875 -41.640625 L 12.796875 -18.0625 L 25.578125 -30.1875 L 36.015625 -30.1875 L 23.453125 -17.390625 L 37.140625 0 L 26.546875 0 Z M 17 -11.84375 "/></g></g></g><g fill="#b84c65" fill-opacity="1"><g transform="translate(202.199586, 215.768285)"><g><path d="M 17.5625 0.671875 C 14.457031 0.671875 11.453125 0.25 8.546875 -0.59375 C 5.648438 -1.4375 3.328125 -2.53125 1.578125 -3.875 L 4.65625 -10.71875 C 6.34375 -9.476562 8.34375 -8.484375 10.65625 -7.734375 C 12.976562 -6.992188 15.300781 -6.625 17.625 -6.625 C 20.195312 -6.625 22.097656 -7.003906 23.328125 -7.765625 C 24.566406 -8.535156 25.1875 -9.554688 25.1875 -10.828125 C 25.1875 -11.765625 24.820312 -12.539062 24.09375 -13.15625 C 23.363281 -13.769531 22.425781 -14.265625 21.28125 -14.640625 C 20.144531 -15.015625 18.609375 -15.425781 16.671875 -15.875 C 13.671875 -16.582031 11.21875 -17.289062 9.3125 -18 C 7.40625 -18.71875 5.769531 -19.863281 4.40625 -21.4375 C 3.039062 -23.007812 2.359375 -25.101562 2.359375 -27.71875 C 2.359375 -30 2.972656 -32.066406 4.203125 -33.921875 C 5.441406 -35.773438 7.300781 -37.242188 9.78125 -38.328125 C 12.269531 -39.410156 15.3125 -39.953125 18.90625 -39.953125 C 21.414062 -39.953125 23.863281 -39.648438 26.25 -39.046875 C 28.644531 -38.453125 30.742188 -37.59375 32.546875 -36.46875 L 29.734375 -29.5625 C 26.109375 -31.625 22.484375 -32.65625 18.859375 -32.65625 C 16.304688 -32.65625 14.421875 -32.242188 13.203125 -31.421875 C 11.992188 -30.597656 11.390625 -29.515625 11.390625 -28.171875 C 11.390625 -26.816406 12.085938 -25.8125 13.484375 -25.15625 C 14.890625 -24.507812 17.035156 -23.867188 19.921875 -23.234375 C 22.910156 -22.515625 25.359375 -21.800781 27.265625 -21.09375 C 29.171875 -20.382812 30.804688 -19.265625 32.171875 -17.734375 C 33.546875 -16.203125 34.234375 -14.125 34.234375 -11.5 C 34.234375 -9.257812 33.601562 -7.210938 32.34375 -5.359375 C 31.09375 -3.503906 29.210938 -2.035156 26.703125 -0.953125 C 24.203125 0.128906 21.15625 0.671875 17.5625 0.671875 Z M 17.5625 0.671875 "/></g></g></g><g fill="#b84c65" fill-opacity="1"><g transform="translate(233.777289, 215.768285)"><g><path d="M 22.390625 -30.640625 C 26.128906 -30.640625 29.148438 -29.515625 31.453125 -27.265625 C 33.753906 -25.023438 34.90625 -21.695312 34.90625 -17.28125 L 34.90625 0 L 26.140625 0 L 26.140625 -15.9375 C 26.140625 -18.332031 25.613281 -20.117188 24.5625 -21.296875 C 23.519531 -22.472656 22.007812 -23.0625 20.03125 -23.0625 C 17.820312 -23.0625 16.0625 -22.378906 14.75 -21.015625 C 13.445312 -19.648438 12.796875 -17.617188 12.796875 -14.921875 L 12.796875 0 L 4.046875 0 L 4.046875 -41.640625 L 12.796875 -41.640625 L 12.796875 -27.046875 C 13.953125 -28.203125 15.351562 -29.085938 17 -29.703125 C 18.644531 -30.328125 20.441406 -30.640625 22.390625 -30.640625 Z M 22.390625 -30.640625 "/></g></g></g><g fill="#b84c65" fill-opacity="1"><g transform="translate(268.327772, 215.768285)"><g><path d="M 18.40625 0.453125 C 15.226562 0.453125 12.375 -0.207031 9.84375 -1.53125 C 7.320312 -2.863281 5.347656 -4.707031 3.921875 -7.0625 C 2.503906 -9.425781 1.796875 -12.101562 1.796875 -15.09375 C 1.796875 -18.082031 2.503906 -20.753906 3.921875 -23.109375 C 5.347656 -25.472656 7.320312 -27.316406 9.84375 -28.640625 C 12.375 -29.972656 15.226562 -30.640625 18.40625 -30.640625 C 21.582031 -30.640625 24.421875 -29.972656 26.921875 -28.640625 C 29.429688 -27.316406 31.394531 -25.472656 32.8125 -23.109375 C 34.238281 -20.753906 34.953125 -18.082031 34.953125 -15.09375 C 34.953125 -12.101562 34.238281 -9.425781 32.8125 -7.0625 C 31.394531 -4.707031 29.429688 -2.863281 26.921875 -1.53125 C 24.421875 -0.207031 21.582031 0.453125 18.40625 0.453125 Z M 18.40625 -6.734375 C 20.644531 -6.734375 22.484375 -7.488281 23.921875 -9 C 25.367188 -10.519531 26.09375 -12.550781 26.09375 -15.09375 C 26.09375 -17.632812 25.367188 -19.660156 23.921875 -21.171875 C 22.484375 -22.691406 20.644531 -23.453125 18.40625 -23.453125 C 16.15625 -23.453125 14.300781 -22.691406 12.84375 -21.171875 C 11.382812 -19.660156 10.65625 -17.632812 10.65625 -15.09375 C 10.65625 -12.550781 11.382812 -10.519531 12.84375 -9 C 14.300781 -7.488281 16.15625 -6.734375 18.40625 -6.734375 Z M 18.40625 -6.734375 "/></g></g></g><g fill="#b84c65" fill-opacity="1"><g transform="translate(300.85902, 215.768285)"><g><path d="M 21.875 -30.640625 C 24.6875 -30.640625 27.242188 -29.992188 29.546875 -28.703125 C 31.847656 -27.410156 33.648438 -25.59375 34.953125 -23.25 C 36.265625 -20.914062 36.921875 -18.195312 36.921875 -15.09375 C 36.921875 -11.988281 36.265625 -9.265625 34.953125 -6.921875 C 33.648438 -4.585938 31.847656 -2.773438 29.546875 -1.484375 C 27.242188 -0.191406 24.6875 0.453125 21.875 0.453125 C 18.03125 0.453125 15.003906 -0.765625 12.796875 -3.203125 L 12.796875 10.890625 L 4.046875 10.890625 L 4.046875 -30.1875 L 12.40625 -30.1875 L 12.40625 -26.703125 C 14.570312 -29.328125 17.726562 -30.640625 21.875 -30.640625 Z M 20.375 -6.734375 C 22.613281 -6.734375 24.453125 -7.488281 25.890625 -9 C 27.335938 -10.519531 28.0625 -12.550781 28.0625 -15.09375 C 28.0625 -17.632812 27.335938 -19.660156 25.890625 -21.171875 C 24.453125 -22.691406 22.613281 -23.453125 20.375 -23.453125 C 18.125 -23.453125 16.28125 -22.691406 14.84375 -21.171875 C 13.40625 -19.660156 12.6875 -17.632812 12.6875 -15.09375 C 12.6875 -12.550781 13.40625 -10.519531 14.84375 -9 C 16.28125 -7.488281 18.125 -6.734375 20.375 -6.734375 Z M 20.375 -6.734375 "/></g></g></g><g fill="#000000" fill-opacity="1"><g transform="translate(111.034891, 215.587079)"><g><path d="M 15.15625 -37.75 L 0.265625 -37.75 L 0.265625 -46.515625 L 40.796875 -46.515625 L 40.796875 -37.75 L 25.921875 -37.75 L 25.921875 0 L 15.15625 0 Z M 15.15625 -37.75 "/></g></g></g></svg>